Coordinates
version=1
nRows=24
nColumns=38
inDegrees=no

Units are S.I. units (second, meters, Newtons, ...)
If the header above contains a line with 'inDegrees', this indicates whether rotational values are in degrees (yes) or radians (no).

endheader
time	pelvis_tilt	pelvis_list	pelvis_rotation	pelvis_tx	pelvis_ty	pelvis_tz	hip_flexion_r	hip_adduction_r	hip_rotation_r	knee_angle_r	ankle_angle_r	subtalar_angle_r	mtp_angle_r	hip_flexion_l	hip_adduction_l	hip_rotation_l	knee_angle_l	ankle_angle_l	subtalar_angle_l	mtp_angle_l	lumbar_extension	lumbar_bending	lumbar_rotation	arm_flex_r	arm_add_r	arm_rot_r	elbow_flex_r	pro_sup_r	wrist_flex_r	wrist_dev_r	arm_flex_l	arm_add_l	arm_rot_l	elbow_flex_l	pro_sup_l	wrist_flex_l	wrist_dev_l
23.44	1.12847	1.41925	0.273771	0.781411	-0.435559	0.973851	0.0902523	0.0886761	-0.154788	0.214178	0.073112	0	0	0.00399875	-0.0815772	-0.247447	0	0.0252492	0	0	-0.00450211	0.179594	-0.0211027	0.529555	-0.350609	0.337781	1.30489	1.5708	0	0	0.376883	-0.176286	0.165964	1.33186	1.5708	0	0
23.45	1.12756	1.41893	0.271779	0.781456	-0.43609	0.973859	0.0909157	0.0890852	-0.152834	0.213875	0.0728038	0	0	0.00447718	-0.081959	-0.249276	0	0.025317	0	0	-0.00484069	0.180094	-0.0200188	0.531074	-0.348578	0.339148	1.30532	1.5708	0	0	0.377673	-0.177908	0.165809	1.33156	1.5708	0	0
23.46	1.12537	1.41858	0.271705	0.781444	-0.436651	0.973839	0.0920031	0.0893833	-0.151464	0.213887	0.072569	0	0	0.00539875	-0.0822453	-0.250792	0	0.0252712	0	0	-0.00497722	0.180623	-0.0191123	0.532601	-0.346515	0.340712	1.30564	1.5708	0	0	0.377167	-0.180441	0.164619	1.33207	1.5708	0	0
23.47	1.12277	1.41834	0.272611	0.781384	-0.437237	0.973811	0.0932915	0.0895098	-0.15056	0.21416	0.0723375	0	0	0.00646264	-0.082374	-0.252035	0	0.0251705	0	0	-0.00507836	0.181097	-0.0184995	0.534207	-0.34441	0.342628	1.30541	1.5708	0	0	0.374382	-0.184105	0.161281	1.33405	1.5708	0	0
23.48	1.12214	1.41814	0.271791	0.781316	-0.437845	0.973821	0.0942263	0.0897186	-0.149724	0.214282	0.0718764	0	0	0.00714565	-0.0825596	-0.25329	0	0.0249468	0	0	-0.0054991	0.181557	-0.0176836	0.535052	-0.342662	0.343386	1.30528	1.5708	0	0	0.37378	-0.18709	0.159907	1.33485	1.5708	0	0
23.49	1.044	1.42471	0.357188	0.779934	-0.440016	0.973859	0.109271	0.0768535	-0.156375	0.219878	0.0725372	0	0	0.0249959	-0.0724919	-0.288524	0.00293412	0.0236944	0	0	0.00115512	0.170717	-0.0250986	0.535952	-0.33811	0.340606	1.30173	1.5708	0	0	0.377876	-0.189774	0.160566	1.33146	1.5708	0	0
23.5	1.12323	1.4178	0.269194	0.781123	-0.439011	0.973883	0.0951366	0.0901205	-0.149267	0.213621	0.0708052	0	0	0.00810391	-0.0829335	-0.255062	0	0.0242171	0	0	-0.00621586	0.182417	-0.0162723	0.535857	-0.339277	0.344597	1.30332	1.5708	0	0	0.376649	-0.191772	0.161993	1.33317	1.5708	0	0
23.51	1.12478	1.41771	0.267662	0.780978	-0.439584	0.973935	0.0952135	0.090309	-0.149032	0.212878	0.0698742	0	0	0.00847147	-0.0830657	-0.255199	0	0.0236371	0	0	-0.00657372	0.182817	-0.0160607	0.536164	-0.337393	0.344935	1.30127	1.5708	0	0	0.378337	-0.194027	0.163579	1.33191	1.5708	0	0
23.52	1.12521	1.41765	0.267558	0.780827	-0.440153	0.973975	0.0957235	0.0903909	-0.149351	0.212633	0.0691333	0	0	0.00895593	-0.0831153	-0.255008	0	0.0229355	0	0	-0.00669634	0.183163	-0.0160837	0.536288	-0.335405	0.344469	1.29895	1.5708	0	0	0.380101	-0.196186	0.165379	1.33073	1.5708	0	0
23.53	1.12478	1.41767	0.268489	0.780678	-0.440726	0.974005	0.0966177	0.090296	-0.149914	0.212901	0.0685638	0	0	0.00952147	-0.0830025	-0.254685	0	0.0222902	0	0	-0.00667313	0.183438	-0.0161826	0.536334	-0.333372	0.343299	1.29667	1.5708	0	0	0.381913	-0.198097	0.167257	1.32973	1.5708	0	0
23.54	1.12315	1.41776	0.270908	0.780495	-0.441296	0.974012	0.0979432	0.0900123	-0.150646	0.213653	0.0682482	0	0	0.0102914	-0.0827175	-0.254072	0	0.0216646	0	0	-0.00640526	0.183725	-0.0166039	0.536536	-0.331262	0.34167	1.2945	1.5708	0	0	0.383468	-0.199695	0.168882	1.32897	1.5708	0	0
23.55	1.12059	1.41781	0.274428	0.780308	-0.44183	0.97399	0.0996486	0.0896235	-0.151654	0.214933	0.0681339	0	0	0.0111189	-0.0823996	-0.253378	0	0.0209322	0	0	-0.0058787	0.18408	-0.0171368	0.536864	-0.329041	0.339479	1.29244	1.5708	0	0	0.384901	-0.201093	0.170915	1.32856	1.5708	0	0
23.56	1.11785	1.41786	0.278223	0.780128	-0.442335	0.973954	0.101526	0.0891466	-0.152741	0.216574	0.0681188	0	0	0.0119125	-0.082015	-0.252452	0	0.0198026	0	0	-0.00530806	0.184424	-0.0177238	0.537373	-0.326972	0.337011	1.29063	1.5708	0	0	0.386285	-0.202282	0.173216	1.32821	1.5708	0	0
23.57	1.01935	1.42433	0.385541	0.778685	-0.444462	0.973744	0.121366	0.0745162	-0.161176	0.226087	0.0703085	0	0	0.0329045	-0.0705249	-0.286196	0	0.0178073	0	0	0.0051013	0.172627	-0.0264453	0.537456	-0.322071	0.329457	1.28634	1.5708	0	0	0.390088	-0.203674	0.175861	1.32473	1.5708	0	0
23.58	1.09534	1.41795	0.302224	0.779837	-0.443338	0.9737	0.108887	0.0872583	-0.15531	0.221975	0.0692535	0	0	0.0163738	-0.08054	-0.251246	0	0.0177795	0	0	-0.00127356	0.184168	-0.0192983	0.537692	-0.323489	0.330005	1.28785	1.5708	0	0	0.388234	-0.204202	0.177295	1.32738	1.5708	0	0
23.59	1.10617	1.41801	0.293107	0.779662	-0.443753	0.973827	0.107423	0.0877377	-0.15602	0.221263	0.0680728	0	0	0.0150252	-0.0809395	-0.249769	0	0.0170679	0	0	-0.00303851	0.185057	-0.0211202	0.539555	-0.32255	0.328744	1.28621	1.5708	0	0	0.3896	-0.204797	0.178289	1.32749	1.5708	0	0
23.6	1.10871	1.41805	0.29184	0.779537	-0.444164	0.973859	0.107637	0.0877528	-0.157163	0.221511	0.067662	0	0	0.0151748	-0.0810176	-0.248935	0	0.0166743	0	0	-0.00340511	0.185557	-0.0228986	0.541667	-0.321668	0.32842	1.28357	1.5708	0	0	0.390564	-0.205198	0.17882	1.32733	1.5708	0	0
23.61	1.10937	1.41813	0.292306	0.77944	-0.444547	0.97386	0.108008	0.0876919	-0.158313	0.221643	0.0674316	0	0	0.0155679	-0.0809733	-0.248174	0	0.0162173	0	0	-0.00338499	0.185923	-0.0249464	0.544301	-0.32092	0.329582	1.28041	1.5708	0	0	0.391084	-0.205596	0.17867	1.32729	1.5708	0	0
23.62	1.10942	1.41831	0.293182	0.779371	-0.444895	0.973854	0.10839	0.0874885	-0.159298	0.221687	0.0671666	0	0	0.0159687	-0.0808171	-0.247653	0	0.0158723	0	0	-0.00330359	0.186125	-0.0267932	0.547093	-0.320557	0.331403	1.27698	1.5708	0	0	0.391409	-0.205884	0.1782	1.32748	1.5708	0	0
23.63	1.10986	1.41848	0.293416	0.779353	-0.445219	0.973857	0.108563	0.0873833	-0.160003	0.221553	0.0669648	0	0	0.0163401	-0.0807282	-0.24731	0	0.0156876	0	0	-0.0033637	0.186324	-0.0281811	0.549944	-0.320559	0.334159	1.27377	1.5708	0	0	0.391751	-0.206047	0.177611	1.32788	1.5708	0	0
23.64	1.11108	1.4187	0.292693	0.779372	-0.445535	0.973876	0.10849	0.0873606	-0.160401	0.221265	0.0669191	0	0	0.0165462	-0.080691	-0.246966	0	0.0154904	0	0	-0.00371244	0.18653	-0.0293273	0.553215	-0.320571	0.338478	1.27039	1.5708	0	0	0.392145	-0.206245	0.176879	1.32844	1.5708	0	0
23.65	1.11341	1.41901	0.2907	0.779423	-0.445844	0.9739	0.108205	0.087311	-0.160645	0.220991	0.067007	0	0	0.0165565	-0.0806804	-0.246604	0	0.0154482	0	0	-0.00442036	0.186687	-0.030257	0.556712	-0.320636	0.343603	1.26695	1.5708	0	0	0.392605	-0.206612	0.176123	1.32934	1.5708	0	0
23.66	1.11659	1.41947	0.287729	0.779522	-0.446134	0.973936	0.107908	0.0870994	-0.160911	0.221075	0.0671974	0	0	0.016506	-0.0806411	-0.246387	0	0.0156197	0	0	-0.00540269	0.186552	-0.0308574	0.55873	-0.321436	0.346364	1.26667	1.5708	0	0	0.392985	-0.207307	0.175376	1.33081	1.5708	0	0
23.67	1.12092	1.42014	0.283506	0.779646	-0.446405	0.973976	0.107471	0.0867265	-0.161113	0.221455	0.0675606	0	0	0.0162503	-0.0804953	-0.246369	0	0.016179	0	0	-0.00674072	0.186206	-0.0309411	0.560298	-0.322333	0.348641	1.26722	1.5708	0	0	0.393542	-0.208306	0.175094	1.3324	1.5708	0	0
